<?xml version="1.0" encoding="UTF-8" standalone="no"?>
<!DOCTYPE svg PUBLIC "-//W3C//DTD SVG 1.1//EN"
 "http://www.w3.org/Graphics/SVG/1.1/DTD/svg11.dtd">
<!-- Generated by graphviz version 2.47.0 (20210316.0004)
 -->
<!-- Title: dependencies Pages: 1 -->
<svg width="3265pt" height="284pt"
 viewBox="0.00 0.00 3265.00 284.00" xmlns="http://www.w3.org/2000/svg" xmlns:xlink="http://www.w3.org/1999/xlink">
<g id="graph0" class="graph" transform="scale(1 1) rotate(0) translate(4 280)">
<title>dependencies</title>
<polygon fill="white" stroke="transparent" points="-4,4 -4,-280 3261,-280 3261,4 -4,4"/>
<text text-anchor="start" x="1607.51" y="-42.4" font-family="sans-serif" font-weight="bold" font-size="14.00">Legend</text>
<polygon fill="#ffffb3" stroke="transparent" points="1394.5,-10 1394.5,-30 1414.5,-30 1414.5,-10 1394.5,-10"/>
<text text-anchor="start" x="1418.13" y="-15.4" font-family="sans-serif" font-size="14.00"> &#160;Declarations</text>
<polygon fill="#8dd3c7" stroke="transparent" points="1507.5,-10 1507.5,-30 1527.5,-30 1527.5,-10 1507.5,-10"/>
<text text-anchor="start" x="1531.23" y="-15.4" font-family="sans-serif" font-size="14.00"> &#160;Module</text>
<polygon fill="#80b1d3" stroke="transparent" points="1593.5,-10 1593.5,-30 1613.5,-30 1613.5,-10 1593.5,-10"/>
<text text-anchor="start" x="1617.28" y="-15.4" font-family="sans-serif" font-size="14.00"> &#160;Bootstrap</text>
<polygon fill="#fdb462" stroke="transparent" points="1690.5,-10 1690.5,-30 1710.5,-30 1710.5,-10 1690.5,-10"/>
<text text-anchor="start" x="1714.17" y="-15.4" font-family="sans-serif" font-size="14.00"> &#160;Providers</text>
<polygon fill="#fb8072" stroke="transparent" points="1786.5,-10 1786.5,-30 1806.5,-30 1806.5,-10 1786.5,-10"/>
<text text-anchor="start" x="1810.23" y="-15.4" font-family="sans-serif" font-size="14.00"> &#160;Exports</text>
<g id="clust1" class="cluster">
<title>cluster_AppModule</title>
<polygon fill="none" stroke="black" stroke-dasharray="1,5" points="8,-70 8,-268 3249,-268 3249,-70 8,-70"/>
</g>
<g id="clust2" class="cluster">
<title>cluster_AppModule_declarations</title>
<polygon fill="none" stroke="black" points="366,-78 366,-130 3241,-130 3241,-78 366,-78"/>
</g>
<g id="clust20" class="cluster">
<title>cluster_AppModule_imports</title>
<polygon fill="none" stroke="black" points="214,-78 214,-130 358,-130 358,-78 214,-78"/>
</g>
<g id="clust22" class="cluster">
<title>cluster_AppModule_bootstrap</title>
<polygon fill="none" stroke="black" points="1537,-208 1537,-260 1661,-260 1661,-208 1537,-208"/>
</g>
<g id="clust23" class="cluster">
<title>cluster_AppModule_providers</title>
<polygon fill="none" stroke="black" points="16,-78 16,-130 206,-130 206,-78 16,-78"/>
</g>
<!-- AddActivityComponent -->
<g id="node1" class="node">
<title>AddActivityComponent</title>
<polygon fill="#ffffb3" stroke="black" points="3232.82,-122 3081.18,-122 3081.18,-86 3232.82,-86 3232.82,-122"/>
<text text-anchor="middle" x="3157" y="-99.8" font-family="Times,serif" font-size="14.00">AddActivityComponent</text>
</g>
<!-- AppModule -->
<g id="node18" class="node">
<title>AppModule</title>
<polygon fill="#8dd3c7" stroke="black" points="1640.66,-187 1637.66,-191 1616.66,-191 1613.66,-187 1557.34,-187 1557.34,-151 1640.66,-151 1640.66,-187"/>
<text text-anchor="middle" x="1599" y="-164.8" font-family="Times,serif" font-size="14.00">AppModule</text>
</g>
<!-- AddActivityComponent&#45;&gt;AppModule -->
<g id="edge1" class="edge">
<title>AddActivityComponent&#45;&gt;AppModule</title>
<path fill="none" stroke="black" d="M3157,-122.15C3157,-145.76 3157,-184 3157,-184 3157,-184 1650.67,-184 1650.67,-184"/>
<polygon fill="black" stroke="black" points="1650.67,-180.5 1640.67,-184 1650.67,-187.5 1650.67,-180.5"/>
</g>
<!-- AppComponent -->
<g id="node2" class="node">
<title>AppComponent</title>
<polygon fill="#ffffb3" stroke="black" points="3063.94,-122 2958.06,-122 2958.06,-86 3063.94,-86 3063.94,-122"/>
<text text-anchor="middle" x="3011" y="-99.8" font-family="Times,serif" font-size="14.00">AppComponent</text>
</g>
<!-- AppComponent&#45;&gt;AppModule -->
<g id="edge2" class="edge">
<title>AppComponent&#45;&gt;AppModule</title>
<path fill="none" stroke="black" d="M3011,-122.01C3011,-144.49 3011,-180 3011,-180 3011,-180 1650.88,-180 1650.88,-180"/>
<polygon fill="black" stroke="black" points="1650.88,-176.5 1640.88,-180 1650.88,-183.5 1650.88,-176.5"/>
</g>
<!-- EditActivitiesComponent -->
<g id="node3" class="node">
<title>EditActivitiesComponent</title>
<polygon fill="#ffffb3" stroke="black" points="2940.6,-122 2781.4,-122 2781.4,-86 2940.6,-86 2940.6,-122"/>
<text text-anchor="middle" x="2861" y="-99.8" font-family="Times,serif" font-size="14.00">EditActivitiesComponent</text>
</g>
<!-- EditActivitiesComponent&#45;&gt;AppModule -->
<g id="edge3" class="edge">
<title>EditActivitiesComponent&#45;&gt;AppModule</title>
<path fill="none" stroke="black" d="M2861,-122.04C2861,-143.66 2861,-177 2861,-177 2861,-177 1650.99,-177 1650.99,-177"/>
<polygon fill="black" stroke="black" points="1650.99,-173.5 1640.99,-177 1650.99,-180.5 1650.99,-173.5"/>
</g>
<!-- EditUserAdminComponent -->
<g id="node4" class="node">
<title>EditUserAdminComponent</title>
<polygon fill="#ffffb3" stroke="black" points="2762.98,-122 2593.02,-122 2593.02,-86 2762.98,-86 2762.98,-122"/>
<text text-anchor="middle" x="2678" y="-99.8" font-family="Times,serif" font-size="14.00">EditUserAdminComponent</text>
</g>
<!-- EditUserAdminComponent&#45;&gt;AppModule -->
<g id="edge4" class="edge">
<title>EditUserAdminComponent&#45;&gt;AppModule</title>
<path fill="none" stroke="black" d="M2678,-122.13C2678,-142.57 2678,-173 2678,-173 2678,-173 1650.97,-173 1650.97,-173"/>
<polygon fill="black" stroke="black" points="1650.97,-169.5 1640.97,-173 1650.97,-176.5 1650.97,-169.5"/>
</g>
<!-- EditUserComponent -->
<g id="node5" class="node">
<title>EditUserComponent</title>
<polygon fill="#ffffb3" stroke="black" points="2574.59,-122 2443.41,-122 2443.41,-86 2574.59,-86 2574.59,-122"/>
<text text-anchor="middle" x="2509" y="-99.8" font-family="Times,serif" font-size="14.00">EditUserComponent</text>
</g>
<!-- EditUserComponent&#45;&gt;AppModule -->
<g id="edge5" class="edge">
<title>EditUserComponent&#45;&gt;AppModule</title>
<path fill="none" stroke="black" d="M2509,-122.11C2509,-141.34 2509,-169 2509,-169 2509,-169 1650.77,-169 1650.77,-169"/>
<polygon fill="black" stroke="black" points="1650.77,-165.5 1640.77,-169 1650.77,-172.5 1650.77,-165.5"/>
</g>
<!-- InformationActivitiesComponent -->
<g id="node6" class="node">
<title>InformationActivitiesComponent</title>
<polygon fill="#ffffb3" stroke="black" points="2425.13,-122 2222.87,-122 2222.87,-86 2425.13,-86 2425.13,-122"/>
<text text-anchor="middle" x="2324" y="-99.8" font-family="Times,serif" font-size="14.00">InformationActivitiesComponent</text>
</g>
<!-- InformationActivitiesComponent&#45;&gt;AppModule -->
<g id="edge6" class="edge">
<title>InformationActivitiesComponent&#45;&gt;AppModule</title>
<path fill="none" stroke="black" d="M2324,-122.27C2324,-140.56 2324,-166 2324,-166 2324,-166 1650.85,-166 1650.85,-166"/>
<polygon fill="black" stroke="black" points="1650.85,-162.5 1640.85,-166 1650.85,-169.5 1650.85,-162.5"/>
</g>
<!-- ListActivitiesEvaluateComponent -->
<g id="node7" class="node">
<title>ListActivitiesEvaluateComponent</title>
<polygon fill="#ffffb3" stroke="black" points="2204.02,-122 1997.98,-122 1997.98,-86 2204.02,-86 2204.02,-122"/>
<text text-anchor="middle" x="2101" y="-99.8" font-family="Times,serif" font-size="14.00">ListActivitiesEvaluateComponent</text>
</g>
<!-- ListActivitiesEvaluateComponent&#45;&gt;AppModule -->
<g id="edge7" class="edge">
<title>ListActivitiesEvaluateComponent&#45;&gt;AppModule</title>
<path fill="none" stroke="black" d="M2101,-122.03C2101,-139.06 2101,-162 2101,-162 2101,-162 1650.94,-162 1650.94,-162"/>
<polygon fill="black" stroke="black" points="1650.94,-158.5 1640.94,-162 1650.94,-165.5 1650.94,-158.5"/>
</g>
<!-- ListCitiesComponent -->
<g id="node8" class="node">
<title>ListCitiesComponent</title>
<polygon fill="#ffffb3" stroke="black" points="1979.78,-122 1844.22,-122 1844.22,-86 1979.78,-86 1979.78,-122"/>
<text text-anchor="middle" x="1912" y="-99.8" font-family="Times,serif" font-size="14.00">ListCitiesComponent</text>
</g>
<!-- ListCitiesComponent&#45;&gt;AppModule -->
<g id="edge8" class="edge">
<title>ListCitiesComponent&#45;&gt;AppModule</title>
<path fill="none" stroke="black" d="M1912,-122.01C1912,-138.05 1912,-159 1912,-159 1912,-159 1650.89,-159 1650.89,-159"/>
<polygon fill="black" stroke="black" points="1650.89,-155.5 1640.89,-159 1650.89,-162.5 1650.89,-155.5"/>
</g>
<!-- ListInterestComponent -->
<g id="node9" class="node">
<title>ListInterestComponent</title>
<polygon fill="#ffffb3" stroke="black" points="1826.59,-122 1681.41,-122 1681.41,-86 1826.59,-86 1826.59,-122"/>
<text text-anchor="middle" x="1754" y="-99.8" font-family="Times,serif" font-size="14.00">ListInterestComponent</text>
</g>
<!-- ListInterestComponent&#45;&gt;AppModule -->
<g id="edge9" class="edge">
<title>ListInterestComponent&#45;&gt;AppModule</title>
<path fill="none" stroke="black" d="M1754,-122.12C1754,-136.78 1754,-155 1754,-155 1754,-155 1650.95,-155 1650.95,-155"/>
<polygon fill="black" stroke="black" points="1650.95,-151.5 1640.95,-155 1650.95,-158.5 1650.95,-151.5"/>
</g>
<!-- ListUserComponent -->
<g id="node10" class="node">
<title>ListUserComponent</title>
<polygon fill="#ffffb3" stroke="black" points="1663.54,-122 1534.46,-122 1534.46,-86 1663.54,-86 1663.54,-122"/>
<text text-anchor="middle" x="1599" y="-99.8" font-family="Times,serif" font-size="14.00">ListUserComponent</text>
</g>
<!-- ListUserComponent&#45;&gt;AppModule -->
<g id="edge10" class="edge">
<title>ListUserComponent&#45;&gt;AppModule</title>
<path fill="none" stroke="black" d="M1599,-122.11C1599,-122.11 1599,-140.99 1599,-140.99"/>
<polygon fill="black" stroke="black" points="1595.5,-140.99 1599,-150.99 1602.5,-140.99 1595.5,-140.99"/>
</g>
<!-- LoginComponent -->
<g id="node11" class="node">
<title>LoginComponent</title>
<polygon fill="#ffffb3" stroke="black" points="1516.28,-122 1401.72,-122 1401.72,-86 1516.28,-86 1516.28,-122"/>
<text text-anchor="middle" x="1459" y="-99.8" font-family="Times,serif" font-size="14.00">LoginComponent</text>
</g>
<!-- LoginComponent&#45;&gt;AppModule -->
<g id="edge11" class="edge">
<title>LoginComponent&#45;&gt;AppModule</title>
<path fill="none" stroke="black" d="M1459,-122.12C1459,-136.78 1459,-155 1459,-155 1459,-155 1547,-155 1547,-155"/>
<polygon fill="black" stroke="black" points="1547,-158.5 1557,-155 1547,-151.5 1547,-158.5"/>
</g>
<!-- MapComponent -->
<g id="node12" class="node">
<title>MapComponent</title>
<polygon fill="#ffffb3" stroke="black" points="1383.49,-122 1276.51,-122 1276.51,-86 1383.49,-86 1383.49,-122"/>
<text text-anchor="middle" x="1330" y="-99.8" font-family="Times,serif" font-size="14.00">MapComponent</text>
</g>
<!-- MapComponent&#45;&gt;AppModule -->
<g id="edge12" class="edge">
<title>MapComponent&#45;&gt;AppModule</title>
<path fill="none" stroke="black" d="M1330,-122.01C1330,-138.05 1330,-159 1330,-159 1330,-159 1547.26,-159 1547.26,-159"/>
<polygon fill="black" stroke="black" points="1547.26,-162.5 1557.26,-159 1547.26,-155.5 1547.26,-162.5"/>
</g>
<!-- MenuBarComponent -->
<g id="node13" class="node">
<title>MenuBarComponent</title>
<polygon fill="#ffffb3" stroke="black" points="1258.2,-122 1123.8,-122 1123.8,-86 1258.2,-86 1258.2,-122"/>
<text text-anchor="middle" x="1191" y="-99.8" font-family="Times,serif" font-size="14.00">MenuBarComponent</text>
</g>
<!-- MenuBarComponent&#45;&gt;AppModule -->
<g id="edge13" class="edge">
<title>MenuBarComponent&#45;&gt;AppModule</title>
<path fill="none" stroke="black" d="M1191,-122.03C1191,-139.06 1191,-162 1191,-162 1191,-162 1547.25,-162 1547.25,-162"/>
<polygon fill="black" stroke="black" points="1547.25,-165.5 1557.25,-162 1547.25,-158.5 1547.25,-165.5"/>
</g>
<!-- RecommendationComponent -->
<g id="node14" class="node">
<title>RecommendationComponent</title>
<polygon fill="#ffffb3" stroke="black" points="1106.09,-122 925.91,-122 925.91,-86 1106.09,-86 1106.09,-122"/>
<text text-anchor="middle" x="1016" y="-99.8" font-family="Times,serif" font-size="14.00">RecommendationComponent</text>
</g>
<!-- RecommendationComponent&#45;&gt;AppModule -->
<g id="edge14" class="edge">
<title>RecommendationComponent&#45;&gt;AppModule</title>
<path fill="none" stroke="black" d="M1016,-122.27C1016,-140.56 1016,-166 1016,-166 1016,-166 1547.07,-166 1547.07,-166"/>
<polygon fill="black" stroke="black" points="1547.07,-169.5 1557.07,-166 1547.07,-162.5 1547.07,-169.5"/>
</g>
<!-- RecommendationMapComponent -->
<g id="node15" class="node">
<title>RecommendationMapComponent</title>
<polygon fill="#ffffb3" stroke="black" points="907.75,-122 702.25,-122 702.25,-86 907.75,-86 907.75,-122"/>
<text text-anchor="middle" x="805" y="-99.8" font-family="Times,serif" font-size="14.00">RecommendationMapComponent</text>
</g>
<!-- RecommendationMapComponent&#45;&gt;AppModule -->
<g id="edge15" class="edge">
<title>RecommendationMapComponent&#45;&gt;AppModule</title>
<path fill="none" stroke="black" d="M805,-122.11C805,-141.34 805,-169 805,-169 805,-169 1547.15,-169 1547.15,-169"/>
<polygon fill="black" stroke="black" points="1547.15,-172.5 1557.15,-169 1547.15,-165.5 1547.15,-172.5"/>
</g>
<!-- SignUpComponent -->
<g id="node16" class="node">
<title>SignUpComponent</title>
<polygon fill="#ffffb3" stroke="black" points="684.11,-122 559.89,-122 559.89,-86 684.11,-86 684.11,-122"/>
<text text-anchor="middle" x="622" y="-99.8" font-family="Times,serif" font-size="14.00">SignUpComponent</text>
</g>
<!-- SignUpComponent&#45;&gt;AppModule -->
<g id="edge16" class="edge">
<title>SignUpComponent&#45;&gt;AppModule</title>
<path fill="none" stroke="black" d="M622,-122.13C622,-142.57 622,-173 622,-173 622,-173 1547.33,-173 1547.33,-173"/>
<polygon fill="black" stroke="black" points="1547.33,-176.5 1557.33,-173 1547.33,-169.5 1547.33,-176.5"/>
</g>
<!-- TableActivitiesComponent -->
<g id="node17" class="node">
<title>TableActivitiesComponent</title>
<polygon fill="#ffffb3" stroke="black" points="541.64,-122 374.36,-122 374.36,-86 541.64,-86 541.64,-122"/>
<text text-anchor="middle" x="458" y="-99.8" font-family="Times,serif" font-size="14.00">TableActivitiesComponent</text>
</g>
<!-- TableActivitiesComponent&#45;&gt;AppModule -->
<g id="edge17" class="edge">
<title>TableActivitiesComponent&#45;&gt;AppModule</title>
<path fill="none" stroke="black" d="M458,-122.04C458,-143.66 458,-177 458,-177 458,-177 1547.04,-177 1547.04,-177"/>
<polygon fill="black" stroke="black" points="1547.04,-180.5 1557.04,-177 1547.04,-173.5 1547.04,-180.5"/>
</g>
<!-- AppComponent  -->
<g id="node20" class="node">
<title>AppComponent </title>
<polygon fill="#80b1d3" stroke="black" points="1653.44,-252 1544.56,-252 1544.56,-216 1653.44,-216 1653.44,-252"/>
<text text-anchor="middle" x="1599" y="-229.8" font-family="Times,serif" font-size="14.00">AppComponent </text>
</g>
<!-- AppModule&#45;&gt;AppComponent  -->
<g id="edge19" class="edge">
<title>AppModule&#45;&gt;AppComponent </title>
<path fill="none" stroke="black" stroke-dasharray="1,5" d="M1599,-187.11C1599,-187.11 1599,-205.99 1599,-205.99"/>
<polygon fill="black" stroke="black" points="1595.5,-205.99 1599,-215.99 1602.5,-205.99 1595.5,-205.99"/>
</g>
<!-- AppRoutingModule -->
<g id="node19" class="node">
<title>AppRoutingModule</title>
<polygon fill="#8dd3c7" stroke="black" points="350.27,-122 347.27,-126 326.27,-126 323.27,-122 221.73,-122 221.73,-86 350.27,-86 350.27,-122"/>
<text text-anchor="middle" x="286" y="-99.8" font-family="Times,serif" font-size="14.00">AppRoutingModule</text>
</g>
<!-- AppRoutingModule&#45;&gt;AppModule -->
<g id="edge18" class="edge">
<title>AppRoutingModule&#45;&gt;AppModule</title>
<path fill="none" stroke="black" d="M286,-122.01C286,-144.49 286,-180 286,-180 286,-180 1547.17,-180 1547.17,-180"/>
<polygon fill="black" stroke="black" points="1547.17,-183.5 1557.17,-180 1547.17,-176.5 1547.17,-183.5"/>
</g>
<!-- NotificationService -->
<g id="node21" class="node">
<title>NotificationService</title>
<ellipse fill="#fdb462" stroke="black" cx="111" cy="-104" rx="86.81" ry="18"/>
<text text-anchor="middle" x="111" y="-99.8" font-family="Times,serif" font-size="14.00">NotificationService</text>
</g>
<!-- NotificationService&#45;&gt;AppModule -->
<g id="edge20" class="edge">
<title>NotificationService&#45;&gt;AppModule</title>
<path fill="none" stroke="black" d="M111,-122.15C111,-145.76 111,-184 111,-184 111,-184 1547.26,-184 1547.26,-184"/>
<polygon fill="black" stroke="black" points="1547.26,-187.5 1557.26,-184 1547.26,-180.5 1547.26,-187.5"/>
</g>
</g>
</svg>
