<?xml version="1.0" encoding="UTF-8" standalone="no"?>
<!DOCTYPE svg PUBLIC "-//W3C//DTD SVG 1.1//EN"
 "http://www.w3.org/Graphics/SVG/1.1/DTD/svg11.dtd">
<!-- Generated by graphviz version 2.47.0 (20210316.0004)
 -->
<!-- Title: dependencies Pages: 1 -->
<svg width="2965pt" height="284pt"
 viewBox="0.00 0.00 2965.00 284.00" xmlns="http://www.w3.org/2000/svg" xmlns:xlink="http://www.w3.org/1999/xlink">
<g id="graph0" class="graph" transform="scale(1 1) rotate(0) translate(4 280)">
<title>dependencies</title>
<polygon fill="white" stroke="transparent" points="-4,4 -4,-280 2961,-280 2961,4 -4,4"/>
<text text-anchor="start" x="1457.51" y="-42.4" font-family="sans-serif" font-weight="bold" font-size="14.00">Legend</text>
<polygon fill="#ffffb3" stroke="transparent" points="1244.5,-10 1244.5,-30 1264.5,-30 1264.5,-10 1244.5,-10"/>
<text text-anchor="start" x="1268.13" y="-15.4" font-family="sans-serif" font-size="14.00"> &#160;Declarations</text>
<polygon fill="#8dd3c7" stroke="transparent" points="1357.5,-10 1357.5,-30 1377.5,-30 1377.5,-10 1357.5,-10"/>
<text text-anchor="start" x="1381.23" y="-15.4" font-family="sans-serif" font-size="14.00"> &#160;Module</text>
<polygon fill="#80b1d3" stroke="transparent" points="1443.5,-10 1443.5,-30 1463.5,-30 1463.5,-10 1443.5,-10"/>
<text text-anchor="start" x="1467.28" y="-15.4" font-family="sans-serif" font-size="14.00"> &#160;Bootstrap</text>
<polygon fill="#fdb462" stroke="transparent" points="1540.5,-10 1540.5,-30 1560.5,-30 1560.5,-10 1540.5,-10"/>
<text text-anchor="start" x="1564.17" y="-15.4" font-family="sans-serif" font-size="14.00"> &#160;Providers</text>
<polygon fill="#fb8072" stroke="transparent" points="1636.5,-10 1636.5,-30 1656.5,-30 1656.5,-10 1636.5,-10"/>
<text text-anchor="start" x="1660.23" y="-15.4" font-family="sans-serif" font-size="14.00"> &#160;Exports</text>
<g id="clust1" class="cluster">
<title>cluster_AppModule</title>
<polygon fill="none" stroke="black" stroke-dasharray="1,5" points="8,-70 8,-268 2949,-268 2949,-70 8,-70"/>
</g>
<g id="clust2" class="cluster">
<title>cluster_AppModule_declarations</title>
<polygon fill="none" stroke="black" points="366,-78 366,-130 2941,-130 2941,-78 366,-78"/>
</g>
<g id="clust18" class="cluster">
<title>cluster_AppModule_imports</title>
<polygon fill="none" stroke="black" points="214,-78 214,-130 358,-130 358,-78 214,-78"/>
</g>
<g id="clust20" class="cluster">
<title>cluster_AppModule_bootstrap</title>
<polygon fill="none" stroke="black" points="1375,-208 1375,-260 1499,-260 1499,-208 1375,-208"/>
</g>
<g id="clust21" class="cluster">
<title>cluster_AppModule_providers</title>
<polygon fill="none" stroke="black" points="16,-78 16,-130 206,-130 206,-78 16,-78"/>
</g>
<!-- AddActivityComponent -->
<g id="node1" class="node">
<title>AddActivityComponent</title>
<polygon fill="#ffffb3" stroke="black" points="2932.82,-122 2781.18,-122 2781.18,-86 2932.82,-86 2932.82,-122"/>
<text text-anchor="middle" x="2857" y="-99.8" font-family="Times,serif" font-size="14.00">AddActivityComponent</text>
</g>
<!-- AppModule -->
<g id="node16" class="node">
<title>AppModule</title>
<polygon fill="#8dd3c7" stroke="black" points="1478.66,-187 1475.66,-191 1454.66,-191 1451.66,-187 1395.34,-187 1395.34,-151 1478.66,-151 1478.66,-187"/>
<text text-anchor="middle" x="1437" y="-164.8" font-family="Times,serif" font-size="14.00">AppModule</text>
</g>
<!-- AddActivityComponent&#45;&gt;AppModule -->
<g id="edge1" class="edge">
<title>AddActivityComponent&#45;&gt;AppModule</title>
<path fill="none" stroke="black" d="M2857,-122.32C2857,-145.66 2857,-183 2857,-183 2857,-183 1488.73,-183 1488.73,-183"/>
<polygon fill="black" stroke="black" points="1488.73,-179.5 1478.73,-183 1488.73,-186.5 1488.73,-179.5"/>
</g>
<!-- AppComponent -->
<g id="node2" class="node">
<title>AppComponent</title>
<polygon fill="#ffffb3" stroke="black" points="2763.94,-122 2658.06,-122 2658.06,-86 2763.94,-86 2763.94,-122"/>
<text text-anchor="middle" x="2711" y="-99.8" font-family="Times,serif" font-size="14.00">AppComponent</text>
</g>
<!-- AppComponent&#45;&gt;AppModule -->
<g id="edge2" class="edge">
<title>AppComponent&#45;&gt;AppModule</title>
<path fill="none" stroke="black" d="M2711,-122.16C2711,-144.35 2711,-179 2711,-179 2711,-179 1488.66,-179 1488.66,-179"/>
<polygon fill="black" stroke="black" points="1488.66,-175.5 1478.66,-179 1488.66,-182.5 1488.66,-175.5"/>
</g>
<!-- EditActivitiesComponent -->
<g id="node3" class="node">
<title>EditActivitiesComponent</title>
<polygon fill="#ffffb3" stroke="black" points="2640.6,-122 2481.4,-122 2481.4,-86 2640.6,-86 2640.6,-122"/>
<text text-anchor="middle" x="2561" y="-99.8" font-family="Times,serif" font-size="14.00">EditActivitiesComponent</text>
</g>
<!-- EditActivitiesComponent&#45;&gt;AppModule -->
<g id="edge3" class="edge">
<title>EditActivitiesComponent&#45;&gt;AppModule</title>
<path fill="none" stroke="black" d="M2561,-122.28C2561,-143.32 2561,-175 2561,-175 2561,-175 1488.67,-175 1488.67,-175"/>
<polygon fill="black" stroke="black" points="1488.67,-171.5 1478.67,-175 1488.67,-178.5 1488.67,-171.5"/>
</g>
<!-- EditUserAdminComponent -->
<g id="node4" class="node">
<title>EditUserAdminComponent</title>
<polygon fill="#ffffb3" stroke="black" points="2462.98,-122 2293.02,-122 2293.02,-86 2462.98,-86 2462.98,-122"/>
<text text-anchor="middle" x="2378" y="-99.8" font-family="Times,serif" font-size="14.00">EditUserAdminComponent</text>
</g>
<!-- EditUserAdminComponent&#45;&gt;AppModule -->
<g id="edge4" class="edge">
<title>EditUserAdminComponent&#45;&gt;AppModule</title>
<path fill="none" stroke="black" d="M2378,-122.31C2378,-142.15 2378,-171 2378,-171 2378,-171 1488.95,-171 1488.95,-171"/>
<polygon fill="black" stroke="black" points="1488.95,-167.5 1478.95,-171 1488.95,-174.5 1488.95,-167.5"/>
</g>
<!-- EditUserComponent -->
<g id="node5" class="node">
<title>EditUserComponent</title>
<polygon fill="#ffffb3" stroke="black" points="2274.59,-122 2143.41,-122 2143.41,-86 2274.59,-86 2274.59,-122"/>
<text text-anchor="middle" x="2209" y="-99.8" font-family="Times,serif" font-size="14.00">EditUserComponent</text>
</g>
<!-- EditUserComponent&#45;&gt;AppModule -->
<g id="edge5" class="edge">
<title>EditUserComponent&#45;&gt;AppModule</title>
<path fill="none" stroke="black" d="M2209,-122.22C2209,-140.83 2209,-167 2209,-167 2209,-167 1488.78,-167 1488.78,-167"/>
<polygon fill="black" stroke="black" points="1488.78,-163.5 1478.78,-167 1488.78,-170.5 1488.78,-163.5"/>
</g>
<!-- InformationActivitiesComponent -->
<g id="node6" class="node">
<title>InformationActivitiesComponent</title>
<polygon fill="#ffffb3" stroke="black" points="2125.13,-122 1922.87,-122 1922.87,-86 2125.13,-86 2125.13,-122"/>
<text text-anchor="middle" x="2024" y="-99.8" font-family="Times,serif" font-size="14.00">InformationActivitiesComponent</text>
</g>
<!-- InformationActivitiesComponent&#45;&gt;AppModule -->
<g id="edge6" class="edge">
<title>InformationActivitiesComponent&#45;&gt;AppModule</title>
<path fill="none" stroke="black" d="M2024,-122.02C2024,-139.37 2024,-163 2024,-163 2024,-163 1488.75,-163 1488.75,-163"/>
<polygon fill="black" stroke="black" points="1488.75,-159.5 1478.75,-163 1488.74,-166.5 1488.75,-159.5"/>
</g>
<!-- ListActivitiesEvaluateComponent -->
<g id="node7" class="node">
<title>ListActivitiesEvaluateComponent</title>
<polygon fill="#ffffb3" stroke="black" points="1904.02,-122 1697.98,-122 1697.98,-86 1904.02,-86 1904.02,-122"/>
<text text-anchor="middle" x="1801" y="-99.8" font-family="Times,serif" font-size="14.00">ListActivitiesEvaluateComponent</text>
</g>
<!-- ListActivitiesEvaluateComponent&#45;&gt;AppModule -->
<g id="edge7" class="edge">
<title>ListActivitiesEvaluateComponent&#45;&gt;AppModule</title>
<path fill="none" stroke="black" d="M1801,-122.01C1801,-138.05 1801,-159 1801,-159 1801,-159 1488.76,-159 1488.76,-159"/>
<polygon fill="black" stroke="black" points="1488.76,-155.5 1478.76,-159 1488.76,-162.5 1488.76,-155.5"/>
</g>
<!-- ListInterestComponent -->
<g id="node8" class="node">
<title>ListInterestComponent</title>
<polygon fill="#ffffb3" stroke="black" points="1679.59,-122 1534.41,-122 1534.41,-86 1679.59,-86 1679.59,-122"/>
<text text-anchor="middle" x="1607" y="-99.8" font-family="Times,serif" font-size="14.00">ListInterestComponent</text>
</g>
<!-- ListInterestComponent&#45;&gt;AppModule -->
<g id="edge8" class="edge">
<title>ListInterestComponent&#45;&gt;AppModule</title>
<path fill="none" stroke="black" d="M1607,-122.12C1607,-136.78 1607,-155 1607,-155 1607,-155 1489.02,-155 1489.02,-155"/>
<polygon fill="black" stroke="black" points="1489.02,-151.5 1479.02,-155 1489.02,-158.5 1489.02,-151.5"/>
</g>
<!-- ListLocalitiesComponent -->
<g id="node9" class="node">
<title>ListLocalitiesComponent</title>
<polygon fill="#ffffb3" stroke="black" points="1516.31,-122 1357.69,-122 1357.69,-86 1516.31,-86 1516.31,-122"/>
<text text-anchor="middle" x="1437" y="-99.8" font-family="Times,serif" font-size="14.00">ListLocalitiesComponent</text>
</g>
<!-- ListLocalitiesComponent&#45;&gt;AppModule -->
<g id="edge9" class="edge">
<title>ListLocalitiesComponent&#45;&gt;AppModule</title>
<path fill="none" stroke="black" d="M1437,-122.11C1437,-122.11 1437,-140.99 1437,-140.99"/>
<polygon fill="black" stroke="black" points="1433.5,-140.99 1437,-150.99 1440.5,-140.99 1433.5,-140.99"/>
</g>
<!-- ListUserComponent -->
<g id="node10" class="node">
<title>ListUserComponent</title>
<polygon fill="#ffffb3" stroke="black" points="1339.54,-122 1210.46,-122 1210.46,-86 1339.54,-86 1339.54,-122"/>
<text text-anchor="middle" x="1275" y="-99.8" font-family="Times,serif" font-size="14.00">ListUserComponent</text>
</g>
<!-- ListUserComponent&#45;&gt;AppModule -->
<g id="edge10" class="edge">
<title>ListUserComponent&#45;&gt;AppModule</title>
<path fill="none" stroke="black" d="M1275,-122.12C1275,-136.78 1275,-155 1275,-155 1275,-155 1385.28,-155 1385.28,-155"/>
<polygon fill="black" stroke="black" points="1385.28,-158.5 1395.28,-155 1385.28,-151.5 1385.28,-158.5"/>
</g>
<!-- LoginComponent -->
<g id="node11" class="node">
<title>LoginComponent</title>
<polygon fill="#ffffb3" stroke="black" points="1192.28,-122 1077.72,-122 1077.72,-86 1192.28,-86 1192.28,-122"/>
<text text-anchor="middle" x="1135" y="-99.8" font-family="Times,serif" font-size="14.00">LoginComponent</text>
</g>
<!-- LoginComponent&#45;&gt;AppModule -->
<g id="edge11" class="edge">
<title>LoginComponent&#45;&gt;AppModule</title>
<path fill="none" stroke="black" d="M1135,-122.01C1135,-138.05 1135,-159 1135,-159 1135,-159 1385.33,-159 1385.33,-159"/>
<polygon fill="black" stroke="black" points="1385.33,-162.5 1395.33,-159 1385.33,-155.5 1385.33,-162.5"/>
</g>
<!-- MenuBarComponent -->
<g id="node12" class="node">
<title>MenuBarComponent</title>
<polygon fill="#ffffb3" stroke="black" points="1060.2,-122 925.8,-122 925.8,-86 1060.2,-86 1060.2,-122"/>
<text text-anchor="middle" x="993" y="-99.8" font-family="Times,serif" font-size="14.00">MenuBarComponent</text>
</g>
<!-- MenuBarComponent&#45;&gt;AppModule -->
<g id="edge12" class="edge">
<title>MenuBarComponent&#45;&gt;AppModule</title>
<path fill="none" stroke="black" d="M993,-122.02C993,-139.37 993,-163 993,-163 993,-163 1385.23,-163 1385.23,-163"/>
<polygon fill="black" stroke="black" points="1385.23,-166.5 1395.23,-163 1385.23,-159.5 1385.23,-166.5"/>
</g>
<!-- RecommendationMapComponent -->
<g id="node13" class="node">
<title>RecommendationMapComponent</title>
<polygon fill="#ffffb3" stroke="black" points="907.75,-122 702.25,-122 702.25,-86 907.75,-86 907.75,-122"/>
<text text-anchor="middle" x="805" y="-99.8" font-family="Times,serif" font-size="14.00">RecommendationMapComponent</text>
</g>
<!-- RecommendationMapComponent&#45;&gt;AppModule -->
<g id="edge13" class="edge">
<title>RecommendationMapComponent&#45;&gt;AppModule</title>
<path fill="none" stroke="black" d="M805,-122.22C805,-140.83 805,-167 805,-167 805,-167 1385.04,-167 1385.04,-167"/>
<polygon fill="black" stroke="black" points="1385.04,-170.5 1395.04,-167 1385.04,-163.5 1385.04,-170.5"/>
</g>
<!-- SignUpComponent -->
<g id="node14" class="node">
<title>SignUpComponent</title>
<polygon fill="#ffffb3" stroke="black" points="684.11,-122 559.89,-122 559.89,-86 684.11,-86 684.11,-122"/>
<text text-anchor="middle" x="622" y="-99.8" font-family="Times,serif" font-size="14.00">SignUpComponent</text>
</g>
<!-- SignUpComponent&#45;&gt;AppModule -->
<g id="edge14" class="edge">
<title>SignUpComponent&#45;&gt;AppModule</title>
<path fill="none" stroke="black" d="M622,-122.31C622,-142.15 622,-171 622,-171 622,-171 1385.18,-171 1385.18,-171"/>
<polygon fill="black" stroke="black" points="1385.18,-174.5 1395.18,-171 1385.18,-167.5 1385.18,-174.5"/>
</g>
<!-- TableActivitiesComponent -->
<g id="node15" class="node">
<title>TableActivitiesComponent</title>
<polygon fill="#ffffb3" stroke="black" points="541.64,-122 374.36,-122 374.36,-86 541.64,-86 541.64,-122"/>
<text text-anchor="middle" x="458" y="-99.8" font-family="Times,serif" font-size="14.00">TableActivitiesComponent</text>
</g>
<!-- TableActivitiesComponent&#45;&gt;AppModule -->
<g id="edge15" class="edge">
<title>TableActivitiesComponent&#45;&gt;AppModule</title>
<path fill="none" stroke="black" d="M458,-122.28C458,-143.32 458,-175 458,-175 458,-175 1385.25,-175 1385.25,-175"/>
<polygon fill="black" stroke="black" points="1385.25,-178.5 1395.25,-175 1385.25,-171.5 1385.25,-178.5"/>
</g>
<!-- AppComponent  -->
<g id="node18" class="node">
<title>AppComponent </title>
<polygon fill="#80b1d3" stroke="black" points="1491.44,-252 1382.56,-252 1382.56,-216 1491.44,-216 1491.44,-252"/>
<text text-anchor="middle" x="1437" y="-229.8" font-family="Times,serif" font-size="14.00">AppComponent </text>
</g>
<!-- AppModule&#45;&gt;AppComponent  -->
<g id="edge17" class="edge">
<title>AppModule&#45;&gt;AppComponent </title>
<path fill="none" stroke="black" stroke-dasharray="1,5" d="M1437,-187.11C1437,-187.11 1437,-205.99 1437,-205.99"/>
<polygon fill="black" stroke="black" points="1433.5,-205.99 1437,-215.99 1440.5,-205.99 1433.5,-205.99"/>
</g>
<!-- AppRoutingModule -->
<g id="node17" class="node">
<title>AppRoutingModule</title>
<polygon fill="#8dd3c7" stroke="black" points="350.27,-122 347.27,-126 326.27,-126 323.27,-122 221.73,-122 221.73,-86 350.27,-86 350.27,-122"/>
<text text-anchor="middle" x="286" y="-99.8" font-family="Times,serif" font-size="14.00">AppRoutingModule</text>
</g>
<!-- AppRoutingModule&#45;&gt;AppModule -->
<g id="edge16" class="edge">
<title>AppRoutingModule&#45;&gt;AppModule</title>
<path fill="none" stroke="black" d="M286,-122.16C286,-144.35 286,-179 286,-179 286,-179 1385.01,-179 1385.01,-179"/>
<polygon fill="black" stroke="black" points="1385.01,-182.5 1395.01,-179 1385.01,-175.5 1385.01,-182.5"/>
</g>
<!-- NotificationService -->
<g id="node19" class="node">
<title>NotificationService</title>
<ellipse fill="#fdb462" stroke="black" cx="111" cy="-104" rx="86.81" ry="18"/>
<text text-anchor="middle" x="111" y="-99.8" font-family="Times,serif" font-size="14.00">NotificationService</text>
</g>
<!-- NotificationService&#45;&gt;AppModule -->
<g id="edge18" class="edge">
<title>NotificationService&#45;&gt;AppModule</title>
<path fill="none" stroke="black" d="M111,-122.32C111,-145.66 111,-183 111,-183 111,-183 1385.13,-183 1385.13,-183"/>
<polygon fill="black" stroke="black" points="1385.13,-186.5 1395.13,-183 1385.13,-179.5 1385.13,-186.5"/>
</g>
</g>
</svg>
